<?xml version="1.0" encoding="UTF-8"?>
<svg id="Layer_1" xmlns="http://www.w3.org/2000/svg" version="1.1" viewBox="0 0 122.88 113.54">
  <!-- Generator: Adobe Illustrator 29.6.1, SVG Export Plug-In . SVG Version: 2.1.1 Build 9)  -->
  <path d="M51.66,10.21h0c5.1,0,10.01.74,14.65,2.11.74.22,1.49.46,2.25.72.84.29,1.67.6,2.49.93l-3.38,6.21c-4.97-1.91-10.36-2.95-16-2.95h0c-6.16,0-12.03,1.25-17.37,3.51-.87.37-1.73.76-2.56,1.18-4.32,2.16-8.24,5-11.62,8.38h0l-.02.02c-1.12,1.12-2.19,2.31-3.18,3.55-1,1.25-1.94,2.55-2.81,3.9-4.49,6.96-7.08,15.23-7.08,24.1h0c0,6.17,1.25,12.04,3.51,17.38.37.87.76,1.73,1.18,2.56,2.16,4.31,5,8.24,8.39,11.62h0l.02.02c1.12,1.12,2.31,2.19,3.55,3.19,1.25,1,2.55,1.94,3.9,2.81,6.95,4.46,15.22,7.05,24.09,7.05h0c6.16,0,12.03-1.25,17.37-3.51.87-.37,1.73-.76,2.56-1.18,4.32-2.16,8.24-5,11.62-8.38h.01l.03-.03c1.12-1.12,2.18-2.3,3.18-3.54,1-1.25,1.94-2.55,2.81-3.9,4.46-6.94,7.05-15.2,7.05-24.06l7.01-1.08c.01.35.01.7.01,1.05h0c0,7.14-1.45,13.94-4.06,20.11-.42,1-.88,1.99-1.37,2.97-2.5,5-5.79,9.54-9.7,13.45h0l-.02.02c-1.3,1.3-2.68,2.54-4.11,3.69-1.44,1.16-2.95,2.25-4.51,3.25-8.04,5.17-17.61,8.17-27.88,8.17h0c-7.13,0-13.93-1.45-20.1-4.06-1-.42-1.99-.88-2.97-1.37-5-2.5-9.54-5.79-13.45-9.7h0l-.02-.03c-1.3-1.3-2.53-2.67-3.69-4.11s-2.25-2.95-3.25-4.51C3,81.71,0,72.14,0,61.87h0c0-7.14,1.45-13.93,4.06-20.11.42-1,.88-1.99,1.37-2.97,2.5-5,5.79-9.54,9.7-13.45h0l.02-.02c1.3-1.3,2.68-2.53,4.11-3.69,1.44-1.16,2.95-2.25,4.51-3.25,8.05-5.17,17.62-8.17,27.89-8.17h0ZM55.88,59.54L85.32,5.47c.93-1.71,3.5-1.22,3.74.71l3.42,27.63,24.84,12.58c1.73.88,1.32,3.46-.6,3.76l-60.85,9.39h0ZM51.66,45.52h0c.72,0,1.43.05,2.12.14l-3.83,7.04c-.67.12-1.32.32-1.93.58-.18.08-.36.16-.54.25-.9.45-1.72,1.04-2.43,1.75h0l-.02.02c-.23.23-.44.47-.65.72-.21.26-.41.53-.59.82-.93,1.45-1.47,3.18-1.47,5.03h0c0,1.3.26,2.52.74,3.64.08.19.16.37.25.54.45.9,1.04,1.72,1.75,2.43h0l.02.02c.23.23.47.45.72.65.26.21.53.41.82.59,1.45.93,3.18,1.47,5.03,1.47h0c1.29,0,2.51-.26,3.63-.73.19-.08.36-.16.54-.25.9-.45,1.72-1.04,2.43-1.75h0l.02-.02c.13-.13.25-.26.36-.38.11-.12.22-.26.33-.4l8.41-1.3c-.18.64-.4,1.27-.66,1.87-.13.31-.28.63-.43.94-.79,1.59-1.83,3.02-3.07,4.26h0l-.03.02c-.41.4-.83.79-1.28,1.15-.46.37-.93.71-1.43,1.03-2.55,1.63-5.57,2.58-8.82,2.58h0c-2.26,0-4.41-.46-6.36-1.29-.31-.13-.63-.28-.94-.43-1.59-.79-3.02-1.83-4.26-3.07h0l-.03-.03c-.4-.4-.79-.83-1.15-1.28-.37-.46-.71-.93-1.03-1.43-1.63-2.54-2.58-5.57-2.58-8.82h0c0-2.27.46-4.42,1.29-6.37.13-.31.28-.63.43-.94.79-1.58,1.83-3.02,3.07-4.25h0c.41-.41.85-.8,1.31-1.17.46-.37.93-.71,1.43-1.03,2.54-1.65,5.57-2.6,8.82-2.6h0ZM51.66,27.72h0c3.06,0,6.02.4,8.83,1.16.46.12.91.25,1.36.4.24.08.49.16.73.24l-3.42,6.29c-2.38-.68-4.9-1.05-7.51-1.05h0c-3.74,0-7.31.76-10.56,2.13-.51.22-1.03.46-1.56.72l-.04.02c-2.61,1.31-4.97,3.03-7.02,5.08h0l-.02.02c-.68.68-1.32,1.4-1.93,2.15-.61.76-1.18,1.55-1.71,2.37-2.71,4.22-4.28,9.25-4.28,14.64h0c0,3.75.76,7.32,2.13,10.57.22.53.46,1.05.72,1.56,1.31,2.62,3.04,5,5.1,7.06h0c.69.69,1.42,1.34,2.17,1.95.76.61,1.55,1.18,2.37,1.71,4.22,2.69,9.25,4.26,14.64,4.26h0c3.74,0,7.31-.76,10.56-2.13.53-.22,1.05-.46,1.56-.72,2.62-1.31,5-3.04,7.06-5.1h0c.69-.69,1.35-1.42,1.95-2.17.61-.76,1.18-1.55,1.71-2.37,2.25-3.5,3.71-7.54,4.15-11.89l7.12-1.1c-.2,4.11-1.12,8.03-2.64,11.64-.28.66-.58,1.32-.91,1.96-1.65,3.31-3.83,6.31-6.41,8.89h0l-.02.02c-.86.86-1.77,1.67-2.71,2.44-.95.77-1.95,1.49-2.98,2.15-5.32,3.41-11.65,5.4-18.43,5.4h0c-4.71,0-9.21-.96-13.29-2.68-.66-.28-1.32-.58-1.96-.91-3.31-1.65-6.31-3.83-8.89-6.41h0l-.02-.03c-.86-.86-1.67-1.76-2.43-2.71-.77-.95-1.49-1.95-2.15-2.98-3.42-5.32-5.4-11.64-5.4-18.43h0c0-4.72.96-9.22,2.69-13.3.28-.66.58-1.32.91-1.96,1.65-3.31,3.83-6.31,6.41-8.89h0l.02-.02c.86-.86,1.76-1.67,2.71-2.43.95-.77,1.95-1.49,2.98-2.15,5.29-3.42,11.62-5.4,18.4-5.4h0Z"/>
</svg>